<?xml version="1.0" standalone="no"?>
<!DOCTYPE svg PUBLIC "-//W3C//DTD SVG 20010904//EN"
 "http://www.w3.org/TR/2001/REC-SVG-20010904/DTD/svg10.dtd">
<svg version="1.0" xmlns="http://www.w3.org/2000/svg"
 width="800.000000pt" height="800.000000pt" viewBox="0 0 800.000000 800.000000"
 preserveAspectRatio="xMidYMid meet">
<metadata>
Created by potrace 1.14, written by Peter Selinger 2001-2017
</metadata>
<g transform="translate(0.000000,800.000000) scale(0.100000,-0.100000)"
fill="#000000" stroke="none">
<path d="M3779 6566 c-2 -2 -40 -7 -84 -10 -44 -3 -93 -8 -110 -11 -153 -27
-267 -50 -355 -71 -109 -26 -368 -111 -385 -125 -5 -5 -15 -9 -22 -9 -8 0 -84
-34 -169 -75 -794 -384 -1347 -1075 -1508 -1885 -31 -159 -41 -269 -41 -475 0
-197 10 -310 40 -476 47 -252 171 -572 314 -809 305 -506 786 -914 1351 -1145
131 -54 367 -131 460 -150 100 -21 170 -35 190 -39 14 -2 41 -7 60 -10 214
-38 605 -42 885 -10 33 3 166 27 272 48 62 13 262 70 340 97 194 68 410 169
558 259 75 46 276 183 297 203 7 7 35 30 63 52 27 22 57 47 66 55 120 114 185
179 239 241 36 40 68 76 71 79 12 11 127 169 163 225 21 33 49 76 61 95 29 45
111 203 153 298 34 74 118 317 126 362 2 14 11 52 19 85 8 33 20 89 26 125 9
59 12 86 26 215 6 54 6 348 0 410 -9 96 -31 235 -51 323 -8 37 -17 78 -20 92
-9 40 -54 179 -89 270 -94 245 -253 515 -427 723 -211 253 -494 489 -778 650
-127 72 -368 183 -420 194 -14 3 -29 9 -35 13 -10 8 -148 54 -215 72 -19 5
-51 13 -70 19 -30 8 -143 33 -205 45 -66 13 -188 33 -255 41 -47 6 -536 14
-541 9z"/>
</g>
</svg>
